<svg class="svg-icon" style="width: 1em; height: 1em;vertical-align: middle;fill: currentColor;overflow: hidden;" viewBox="0 0 1024 1024" version="1.1" xmlns="http://www.w3.org/2000/svg"><path d="M929 719a30 30 0 0 1-30-30V335a30 30 0 0 1 60 0v354a30 30 0 0 1-30 30zM721 839a30 30 0 0 1-30-30V215a30 30 0 0 1 60 0v594a30 30 0 0 1-30 30zM512 959a30 30 0 0 1-30-30V95a30 30 0 0 1 60 0v834a30 30 0 0 1-30 30zM304 839a30 30 0 0 1-30-30V215a30 30 0 0 1 60 0v594a30 30 0 0 1-30 30zM95 719a30 30 0 0 1-30-30V335a30 30 0 0 1 60 0v354a30 30 0 0 1-30 30z" fill="#333333" /></svg>